<svg id="Capa_1" enable-background="new 0 0 512 512" height="512" viewBox="0 0 512 512" width="512" xmlns="http://www.w3.org/2000/svg"><g><path d="m123.366 317c18.768 0 36.926-5.228 53.062-15.203 19.162 9.972 40.284 15.203 61.649 15.203 25.1 0 49.442-7.078 71.038-20.568 19.474 13.493 41.794 20.568 65.18 20.568 68.088 0 123.482-60.374 123.482-134.583 0-74.21-55.394-134.584-123.482-134.584-10.075 0-20.012 1.333-29.667 3.971-27.284-33.06-65.559-51.804-106.551-51.804-27.59 0-54.4 8.603-77.532 24.878-19.839 13.958-36.228 32.99-47.794 55.41-55.137 5.854-98.527 56.792-98.527 118.073-.001 65.418 48.961 118.639 109.142 118.639zm-.762-207.269c5.858-.063 11.144-3.531 13.534-8.88 19.527-43.703 58.588-70.851 101.939-70.851 28.741 0 55.905 12.03 76.781 33.517-14.227 7.406-33.138 20.118-46.745 39.987-4.681 6.835-2.934 16.17 3.901 20.851 2.591 1.774 5.542 2.625 8.462 2.625 4.782 0 9.483-2.282 12.39-6.526 18.053-26.363 50.359-36.646 50.734-36.762.114-.035.22-.083.333-.121.216-.071.434-.136.648-.218 9.531-3.662 19.528-5.52 29.714-5.52 51.546 0 93.482 46.916 93.482 104.584 0 57.667-41.936 104.583-93.482 104.583-19.996 0-39.03-7.102-55.045-20.537-2.78-2.333-6.208-3.509-9.642-3.509-3.134 0-6.274.979-8.934 2.951-18.608 13.801-40.254 21.095-62.597 21.095-19.06 0-37.916-5.405-54.529-15.632-5.265-3.239-11.976-2.919-16.907.808-12.832 9.698-27.796 14.824-43.275 14.824-43.64 0-79.143-39.763-79.143-88.639 0-48.407 35.162-88.166 78.381-88.63z"/><path d="m473.942 365.894c-3.741-7.954-11.532-12.894-20.333-12.894h-350.564c-19.723 0-37.634 8.026-50.435 22.602-12.829 14.607-19.61 34.455-19.61 57.398 0 22.927 6.853 42.652 19.819 57.045 12.755 14.158 30.592 21.955 50.226 21.955h347.909c8.53 0 16.219-4.725 20.066-12.331 3.856-7.625 3.102-16.643-1.969-23.534-12.154-16.517-25.445-53.264 1.836-86.224 5.645-6.82 6.816-16.023 3.055-24.017zm-48.594 74.986c1.449 17.333 6.991 31.419 12.127 41.12h-334.43c-24.326 0-40.045-19.233-40.045-49 0-29.906 16.093-50 40.045-50h335.993c-10.703 17.524-15.413 37.276-13.69 57.88z"/><path d="m362.739 417h-236.054c-8.284 0-15 6.716-15 15s6.716 15 15 15h236.054c8.284 0 15-6.716 15-15s-6.716-15-15-15z"/></g></svg>