<svg id="Layer_1" enable-background="new 0 0 128 128" height="512" viewBox="0 0 128 128" width="512" xmlns="http://www.w3.org/2000/svg"><g><path d="m119.5 9.943h-107c-2.757 0-5 2.243-5 5v102.113c0 2.757 2.243 5 5 5h107c2.757 0 5-2.243 5-5v-102.113c0-2.757-2.243-5-5-5z" fill="#e6e7e8"/><g><path d="m119.5 26.384h-115v86.672c0 2.209 1.791 4 4 4h107c2.209 0 4-1.791 4-4z" fill="#d4fbff"/><g fill="#0089ef"><g><path d="m55.683 37.024h-39.366c-.552 0-1-.447-1-1s.448-1 1-1h39.365c.552 0 1 .447 1 1s-.447 1-.999 1z"/><path d="m107.683 43.024h-91.366c-.552 0-1-.447-1-1s.448-1 1-1h91.365c.552 0 1 .447 1 1s-.447 1-.999 1z"/><path d="m107.683 49.024h-91.366c-.552 0-1-.447-1-1s.448-1 1-1h91.365c.552 0 1 .447 1 1s-.447 1-.999 1z"/></g><g><path d="m55.683 57.024h-39.366c-.552 0-1-.447-1-1s.448-1 1-1h39.365c.552 0 1 .447 1 1s-.447 1-.999 1z"/><path d="m107.683 63.024h-91.366c-.552 0-1-.447-1-1s.448-1 1-1h91.365c.552 0 1 .447 1 1s-.447 1-.999 1z"/><path d="m107.683 69.024h-91.366c-.552 0-1-.447-1-1s.448-1 1-1h91.365c.552 0 1 .447 1 1s-.447 1-.999 1z"/></g><g><path d="m55.683 77.024h-39.366c-.552 0-1-.447-1-1s.448-1 1-1h39.365c.552 0 1 .447 1 1s-.447 1-.999 1z"/><path d="m107.683 83.024h-91.366c-.552 0-1-.447-1-1s.448-1 1-1h91.365c.552 0 1 .447 1 1s-.447 1-.999 1z"/><path d="m107.683 89.024h-91.366c-.552 0-1-.447-1-1s.448-1 1-1h91.365c.552 0 1 .447 1 1s-.447 1-.999 1z"/></g></g><path d="m115.5 114.056h-107c-2.209 0-4-1.791-4-4v3c0 2.209 1.791 4 4 4h107c2.209 0 4-1.791 4-4v-3c0 2.209-1.791 4-4 4z" fill="#fff"/><path d="m115.5 6.944h-107c-2.209 0-4 1.791-4 4v15.441h115v-15.441c0-2.21-1.791-4-4-4z" fill="#6dc9f7"/><g fill="#3a2c60"><path d="m41.317 97.024h34.365c.552 0 1-.447 1-1s-.448-1-1-1h-34.365c-.552 0-1 .447-1 1s.448 1 1 1z"/><path d="m107.683 101.024h-66.366c-.552 0-1 .447-1 1s.448 1 1 1h66.365c.552 0 1-.447 1-1s-.447-1-.999-1z"/><path d="m107.683 107.024h-66.366c-.552 0-1 .447-1 1s.448 1 1 1h66.365c.552 0 1-.447 1-1s-.447-1-.999-1z"/><path d="m31.164 94.385-8.838 9.493-3.388-4.066c-.676-.811-1.88-.92-2.691-.244-.811.675-.92 1.88-.245 2.691l4.776 5.731c.351.421.867.672 1.415.687.018 0 .035.001.052.001.529 0 1.036-.22 1.398-.608l10.316-11.08c.719-.772.676-1.981-.096-2.7-.771-.721-1.98-.677-2.699.095z"/><path d="m119.5 57.17c-.552 0-1 .447-1 1v9.916c0 .553.448 1 1 1s1-.447 1-1v-9.916c0-.553-.448-1-1-1z"/><path d="m115.5 5.943h-107c-2.757 0-5 2.243-5 5v15.44 86.672c0 2.757 2.243 5 5 5h107c2.757 0 5-2.243 5-5v-40.47c0-.553-.448-1-1-1s-1 .447-1 1v40.47c0 1.654-1.346 3-3 3h-107c-1.654 0-3-1.346-3-3v-85.671h113v26.036c0 .553.448 1 1 1s1-.447 1-1v-27.036-15.44c0-2.757-2.243-5.001-5-5.001zm-110 19.441v-14.44c0-1.654 1.346-3 3-3h107c1.654 0 3 1.346 3 3v14.44z"/></g><circle cx="41.943" cy="17.108" fill="#fff" r="3.424"/><circle cx="29.505" cy="17.108" fill="#d4fbff" r="3.424"/><circle cx="17.068" cy="17.108" fill="#fa759e" r="3.424"/></g></g></svg>